<svg width="16" height="37" viewBox="0 0 16 37" fill="none" xmlns="http://www.w3.org/2000/svg">
<g clip-path="url(#clip0)">
<path d="M8.86655 34.2993L8.64329 34.4936L7.65094 35.3573L6.5742 36.2945L6.5742 34.867L6.5742 28.1188L5.58862 28.1188L4.93862 28.1188L4.93862 27.4688L4.93861 25.6379L4.69731 25.6379L4.04731 25.6379L4.04731 24.9879L4.04731 13.2901L3.1977 13.2901L2.5477 13.2901L2.5477 12.6401L2.5477 10.0489L2.5477 9.39887L3.1977 9.39887L5.77477 9.39887L5.77477 4.65279L4.85167 4.65279L4.20168 4.65279L4.20168 4.00279L4.20166 2.7072L4.20165 2.0572L4.85166 2.0572L6.42478 2.05718L9.01598 2.05718L10.5891 2.05717L11.2391 2.05717L11.2391 2.70718V4.00278L11.2391 4.65278L10.5891 4.65278L9.66597 4.65277L9.66596 9.39888H12.243H12.893L12.893 10.0489L12.893 12.6401L12.893 13.2901L12.243 13.2901L11.3934 13.2901V24.9879V25.6379L10.7434 25.6379L10.5021 25.6379L10.5021 27.4688L10.5021 28.1188L9.8521 28.1188L8.86655 28.1188L8.86655 34.0033L8.86655 34.2993Z" fill="#00B3F3"/>
<path d="M4.85164 2.70723L4.85166 4.00282H6.42476L6.42477 10.0489L3.19769 10.0489L3.19769 12.6401L4.6973 12.6401L4.6973 24.9879L5.5886 24.9879L5.58861 27.4689L7.22418 27.4689L7.22419 34.867L8.21654 34.0033V27.4689L9.85209 27.4689L9.85211 24.9879L10.7434 24.9879V12.6401L12.243 12.6401L12.243 10.0489L9.01594 10.0489L9.01596 4.0028L10.5891 4.00281V2.70721L9.01597 2.70722H6.42477L4.85164 2.70723ZM3.9324 1.788C4.17619 1.5442 4.50685 1.40724 4.85163 1.40723L6.42476 1.40722H9.01597L10.5891 1.40721C10.9338 1.40721 11.2645 1.54417 11.5083 1.78797C11.7521 2.03177 11.8891 2.36243 11.8891 2.70721V4.00281C11.8891 4.3476 11.7521 4.67826 11.5083 4.92206C11.2645 5.16586 10.9338 5.30281 10.589 5.30281L10.316 5.30281L10.316 8.74891L12.243 8.74891C12.5878 8.74891 12.9185 8.88588 13.1623 9.12968C13.4061 9.37348 13.543 9.70414 13.543 10.0489L13.543 12.6401C13.543 12.9849 13.406 13.3156 13.1622 13.5594C12.9184 13.8032 12.5878 13.9401 12.243 13.9401L12.0434 13.9401V24.9879C12.0434 25.3327 11.9064 25.6633 11.6626 25.9071C11.518 26.0518 11.3427 26.1589 11.1521 26.222L11.1521 27.4689C11.1521 27.8137 11.0151 28.1443 10.7713 28.3881C10.5275 28.6319 10.1969 28.7689 9.85208 28.7689L9.51654 28.7689L9.51654 34.0033C9.51654 34.3493 9.37872 34.6796 9.13584 34.9225C9.11468 34.9437 9.09276 34.9641 9.07002 34.9839L8.07767 35.8476C7.69337 36.1821 7.14912 36.2613 6.68545 36.0502C6.22178 35.839 5.92418 35.3765 5.92418 34.867L5.92418 28.7688H5.5886C4.87063 28.7688 4.2886 28.1868 4.2886 27.4689L4.2886 26.2224C3.77085 26.051 3.3973 25.5631 3.3973 24.9879L3.3973 13.9401L3.19768 13.9401C2.47971 13.9401 1.89768 13.3581 1.89769 12.6401L1.89769 10.0489C1.89769 9.68992 2.0432 9.36492 2.27845 9.12967C2.51371 8.89442 2.83871 8.74891 3.19769 8.74891L5.12476 8.7489L5.12476 5.30282L4.85166 5.30282C4.13369 5.30282 3.55166 4.7208 3.55166 4.00283L3.55164 2.70724C3.55164 2.36246 3.6886 2.0318 3.9324 1.788Z" fill="white"/>
<path d="M7.34363 21.748L10.8155 21.7424Z" fill="#00B3F3"/>
<path d="M7.34363 21.748L10.8155 21.7424" stroke="white" stroke-width="1.3" stroke-miterlimit="10" stroke-linecap="round"/>
<path d="M7.34363 17.0698L10.8155 17.0642Z" fill="#00B3F3"/>
<path d="M7.34363 17.0698L10.8155 17.0642" stroke="white" stroke-width="1.3" stroke-miterlimit="10" stroke-linecap="round"/>
<path d="M12.4157 9.57658L3.026 9.59143" stroke="white" stroke-width="1.3"/>
<path d="M12.3704 13.132L3.11084 13.1525" stroke="white" stroke-width="1.3"/>
<path d="M9.95774 27.9713L5.41528 27.9543" stroke="white" stroke-width="1.3"/>
</g>
<defs>
<clipPath id="clip0">
<rect width="16" height="37" fill="white"/>
</clipPath>
</defs>
</svg>
